<svg width="22" height="22" xmlns="http://www.w3.org/2000/svg"><g fill="#00C0AC" fill-rule="evenodd"><path d="M.52 11L11 21.48 21.48 11 11 .52.52 11zM11 22a.215.215 0 0 1-.153-.063L.063 11.152a.216.216 0 0 1 0-.305L10.847.063a.216.216 0 0 1 .305 0l10.785 10.784a.215.215 0 0 1 0 .305L11.152 21.937A.215.215 0 0 1 11 22z"/><path d="M1.241 10.58h6.623l2.374-3.904-8.997 3.903zm6.751.42H.222a.22.22 0 0 1-.217-.166.208.208 0 0 1 .125-.236L10.685 6.02a.231.231 0 0 1 .257.05.202.202 0 0 1 .028.246l-2.785 4.58a.225.225 0 0 1-.193.105zm6.144.42l-2.374 3.904 8.997-3.903h-6.623zM11.222 16a.228.228 0 0 1-.164-.069.202.202 0 0 1-.028-.246l2.785-4.58a.225.225 0 0 1 .193-.105h7.77a.22.22 0 0 1 .217.166.208.208 0 0 1-.125.236L11.315 15.98a.231.231 0 0 1-.093.019z"/><path d="M2.477 6.316l3.84 14.207 14.206-3.84-3.84-14.206-14.206 3.84zM6.165 21a.214.214 0 0 1-.206-.158L2.007 6.222a.214.214 0 0 1 .151-.263l14.62-3.952a.214.214 0 0 1 .263.151l3.951 14.62a.214.214 0 0 1-.15.263l-14.62 3.952a.215.215 0 0 1-.057.007z"/><path d="M4.78 8a.211.211 0 0 1-.11-.03L2.11 6.43a.237.237 0 0 1-.08-.315.216.216 0 0 1 .3-.085l2.56 1.538a.237.237 0 0 1 .08.315.219.219 0 0 1-.19.116M19.778 17a.214.214 0 0 1-.11-.03l-2.556-1.536a.238.238 0 0 1-.082-.317.217.217 0 0 1 .303-.086l2.555 1.535a.238.238 0 0 1 .082.317.22.22 0 0 1-.192.117m-2.557-9a.22.22 0 0 1-.191-.115.236.236 0 0 1 .08-.315l2.559-1.54a.216.216 0 0 1 .301.085.237.237 0 0 1-.08.315l-2.56 1.539a.213.213 0 0 1-.11.031M2.223 17a.22.22 0 0 1-.193-.116.237.237 0 0 1 .081-.317l2.555-1.536a.217.217 0 0 1 .304.085.237.237 0 0 1-.081.317l-2.555 1.536a.214.214 0 0 1-.111.031m9.27-14h-.001C11.22 3 11 2.912 11 2.805l.014-2.61c0-.108.221-.195.493-.195h.001c.272 0 .492.088.492.195l-.014 2.61c0 .108-.221.195-.493.195m0 19h-.001c-.272 0-.492-.088-.492-.197l.014-2.607c0-.108.221-.196.493-.196h.001c.272 0 .493.088.492.197l-.014 2.607c0 .108-.221.196-.493.196"/><path d="M2.477 16.735l14.258 3.788 3.788-14.258L6.265 2.477 2.477 16.735zM16.887 21a.218.218 0 0 1-.055-.007L2.16 17.095a.215.215 0 0 1-.153-.263L5.905 2.16a.215.215 0 0 1 .263-.152L20.84 5.905a.215.215 0 0 1 .153.263L17.095 20.84a.215.215 0 0 1-.208.16z"/><path d="M6.84 2.969l3.013 5.596 4.314-.015L6.84 2.97zM9.737 9a.2.2 0 0 1-.175-.108L6.027 2.326a.23.23 0 0 1 .039-.27.19.19 0 0 1 .252-.016l8.597 6.548a.227.227 0 0 1 .076.243.204.204 0 0 1-.192.152L9.74 9h-.001zm-1.904 4.45l7.328 5.581-3.014-5.596-4.314.015zM15.798 20a.191.191 0 0 1-.116-.04l-8.597-6.548a.226.226 0 0 1-.076-.243.204.204 0 0 1 .192-.151L12.26 13h.001a.2.2 0 0 1 .175.108l3.536 6.566a.23.23 0 0 1-.039.27.194.194 0 0 1-.136.056z"/><path d="M2.478 6.223l3.745 14.3 14.3-3.746-3.746-14.3-14.3 3.746zM6.07 21a.215.215 0 0 1-.209-.16L2.007 6.123a.215.215 0 0 1 .154-.263l14.715-3.854a.215.215 0 0 1 .263.154l3.854 14.715a.215.215 0 0 1-.154.263L6.124 20.993A.214.214 0 0 1 6.07 21z"/><path d="M13.548 8.932l2.702 4.131 1.126-9.849-3.828 5.718zM16.424 14a.263.263 0 0 1-.221-.112l-3.17-4.847a.199.199 0 0 1 .002-.222l4.49-6.709a.273.273 0 0 1 .3-.1c.113.033.186.13.174.234L16.677 13.8c-.01.096-.092.175-.2.195a.287.287 0 0 1-.053.005zm-8.247-4L7 20l4-5.805L8.177 10zM6.255 21a.29.29 0 0 1-.08-.01c-.113-.033-.186-.13-.174-.234L7.323 9.2c.011-.096.092-.175.2-.195a.269.269 0 0 1 .274.107l3.17 4.847a.199.199 0 0 1-.002.222l-4.49 6.709a.264.264 0 0 1-.22.11z"/></g></svg>